<svg width="795" height="112" viewBox="0 0 795 112" fill="none" xmlns="http://www.w3.org/2000/svg">
<path d="M11.16 75.0858H47.4V85.6458H0V1.64579H11.16V75.0858ZM104.13 25.6458H114.57V85.6458H104.13V75.3258C98.93 83.2458 91.37 87.2058 81.45 87.2058C73.05 87.2058 65.89 84.1658 59.97 78.0858C54.05 71.9258 51.09 64.4458 51.09 55.6458C51.09 46.8458 54.05 39.4058 59.97 33.3258C65.89 27.1658 73.05 24.0858 81.45 24.0858C91.37 24.0858 98.93 28.0458 104.13 35.9658V25.6458ZM82.77 77.1258C88.85 77.1258 93.93 75.0858 98.01 71.0058C102.09 66.8458 104.13 61.7258 104.13 55.6458C104.13 49.5658 102.09 44.4858 98.01 40.4058C93.93 36.2458 88.85 34.1658 82.77 34.1658C76.77 34.1658 71.73 36.2458 67.65 40.4058C63.57 44.4858 61.53 49.5658 61.53 55.6458C61.53 61.7258 63.57 66.8458 67.65 71.0058C71.73 75.0858 76.77 77.1258 82.77 77.1258ZM159.548 24.0858C166.588 24.0858 172.227 26.3258 176.467 30.8058C180.707 35.2058 182.827 41.2058 182.827 48.8058V85.6458H172.387V49.4058C172.387 44.5258 171.068 40.7658 168.428 38.1258C165.788 35.4058 162.147 34.0458 157.507 34.0458C152.307 34.0458 148.108 35.6858 144.908 38.9658C141.708 42.1658 140.107 47.1258 140.107 53.8458V85.6458H129.667V25.6458H140.107V34.2858C144.347 27.4858 150.827 24.0858 159.548 24.0858ZM246.362 1.64579H256.802V85.6458H246.362V75.3258C241.162 83.2458 233.602 87.2058 223.682 87.2058C215.282 87.2058 208.122 84.1658 202.202 78.0858C196.282 71.9258 193.322 64.4458 193.322 55.6458C193.322 46.8458 196.282 39.4058 202.202 33.3258C208.122 27.1658 215.282 24.0858 223.682 24.0858C233.602 24.0858 241.162 28.0458 246.362 35.9658V1.64579ZM225.002 77.1258C231.082 77.1258 236.162 75.0858 240.242 71.0058C244.322 66.8458 246.362 61.7258 246.362 55.6458C246.362 49.5658 244.322 44.4858 240.242 40.4058C236.162 36.2458 231.082 34.1658 225.002 34.1658C219.002 34.1658 213.962 36.2458 209.882 40.4058C205.802 44.4858 203.762 49.5658 203.762 55.6458C203.762 61.7258 205.802 66.8458 209.882 71.0058C213.962 75.0858 219.002 77.1258 225.002 77.1258ZM277.179 14.7258C275.179 14.7258 273.499 14.0458 272.139 12.6858C270.779 11.3258 270.099 9.68579 270.099 7.76579C270.099 5.84579 270.779 4.20579 272.139 2.84578C273.499 1.40579 275.179 0.685791 277.179 0.685791C279.099 0.685791 280.739 1.40579 282.099 2.84578C283.459 4.20579 284.139 5.84579 284.139 7.76579C284.139 9.68579 283.459 11.3258 282.099 12.6858C280.739 14.0458 279.099 14.7258 277.179 14.7258ZM271.899 85.6458V25.6458H282.339V85.6458H271.899ZM327.427 24.0858C334.467 24.0858 340.107 26.3258 344.347 30.8058C348.587 35.2058 350.707 41.2058 350.707 48.8058V85.6458H340.267V49.4058C340.267 44.5258 338.947 40.7658 336.307 38.1258C333.667 35.4058 330.027 34.0458 325.387 34.0458C320.187 34.0458 315.987 35.6858 312.787 38.9658C309.587 42.1658 307.987 47.1258 307.987 53.8458V85.6458H297.547V25.6458H307.987V34.2858C312.227 27.4858 318.707 24.0858 327.427 24.0858ZM414.361 25.6458H424.681V83.1258C424.681 92.0058 421.681 98.8858 415.681 103.766C409.681 108.726 402.481 111.206 394.081 111.206C387.361 111.206 381.561 109.926 376.681 107.366C371.801 104.886 368.121 101.286 365.641 96.5658L374.761 91.4058C378.041 98.1258 384.561 101.486 394.321 101.486C400.561 101.486 405.441 99.8458 408.961 96.5658C412.561 93.2858 414.361 88.8058 414.361 83.1258V74.6058C409.081 82.6058 401.561 86.6058 391.801 86.6058C383.241 86.6058 376.001 83.5658 370.081 77.4858C364.161 71.4058 361.201 64.0058 361.201 55.2858C361.201 46.5658 364.161 39.2058 370.081 33.2058C376.001 27.1258 383.241 24.0858 391.801 24.0858C401.641 24.0858 409.161 28.0458 414.361 35.9658V25.6458ZM377.761 70.5258C381.841 74.6058 386.921 76.6458 393.001 76.6458C399.081 76.6458 404.161 74.6058 408.241 70.5258C412.321 66.4458 414.361 61.3658 414.361 55.2858C414.361 49.2858 412.321 44.2458 408.241 40.1658C404.161 36.0858 399.081 34.0458 393.001 34.0458C386.921 34.0458 381.841 36.0858 377.761 40.1658C373.681 44.2458 371.641 49.2858 371.641 55.2858C371.641 61.3658 373.681 66.4458 377.761 70.5258ZM500.618 1.64579C508.378 1.64579 514.818 4.24579 519.938 9.44579C525.138 14.5658 527.738 20.9658 527.738 28.6458C527.738 36.2458 525.138 42.6458 519.938 47.8458C514.818 53.0458 508.378 55.6458 500.618 55.6458H481.298V85.6458H470.138V1.64579H500.618ZM500.618 45.2058C505.258 45.2058 509.098 43.6458 512.138 40.5258C515.178 37.3258 516.698 33.3658 516.698 28.6458C516.698 23.8458 515.178 19.8858 512.138 16.7658C509.098 13.6458 505.258 12.0858 500.618 12.0858H481.298V45.2058H500.618ZM584.229 25.6458H594.669V85.6458H584.229V75.3258C579.029 83.2458 571.469 87.2058 561.549 87.2058C553.149 87.2058 545.989 84.1658 540.069 78.0858C534.149 71.9258 531.189 64.4458 531.189 55.6458C531.189 46.8458 534.149 39.4058 540.069 33.3258C545.989 27.1658 553.149 24.0858 561.549 24.0858C571.469 24.0858 579.029 28.0458 584.229 35.9658V25.6458ZM562.869 77.1258C568.949 77.1258 574.029 75.0858 578.109 71.0058C582.189 66.8458 584.229 61.7258 584.229 55.6458C584.229 49.5658 582.189 44.4858 578.109 40.4058C574.029 36.2458 568.949 34.1658 562.869 34.1658C556.869 34.1658 551.829 36.2458 547.749 40.4058C543.669 44.4858 541.629 49.5658 541.629 55.6458C541.629 61.7258 543.669 66.8458 547.749 71.0058C551.829 75.0858 556.869 77.1258 562.869 77.1258ZM659.567 25.6458H669.887V83.1258C669.887 92.0058 666.887 98.8858 660.887 103.766C654.887 108.726 647.687 111.206 639.287 111.206C632.567 111.206 626.767 109.926 621.887 107.366C617.007 104.886 613.327 101.286 610.847 96.5658L619.967 91.4058C623.247 98.1258 629.767 101.486 639.527 101.486C645.767 101.486 650.647 99.8458 654.167 96.5658C657.767 93.2858 659.567 88.8058 659.567 83.1258V74.6058C654.287 82.6058 646.767 86.6058 637.007 86.6058C628.447 86.6058 621.207 83.5658 615.287 77.4858C609.367 71.4058 606.407 64.0058 606.407 55.2858C606.407 46.5658 609.367 39.2058 615.287 33.2058C621.207 27.1258 628.447 24.0858 637.007 24.0858C646.847 24.0858 654.367 28.0458 659.567 35.9658V25.6458ZM622.967 70.5258C627.047 74.6058 632.127 76.6458 638.207 76.6458C644.287 76.6458 649.367 74.6058 653.447 70.5258C657.527 66.4458 659.567 61.3658 659.567 55.2858C659.567 49.2858 657.527 44.2458 653.447 40.1658C649.367 36.0858 644.287 34.0458 638.207 34.0458C632.127 34.0458 627.047 36.0858 622.967 40.1658C618.887 44.2458 616.847 49.2858 616.847 55.2858C616.847 61.3658 618.887 66.4458 622.967 70.5258ZM692.304 60.4458C693.344 65.8058 695.784 69.9658 699.624 72.9258C703.544 75.8858 708.344 77.3658 714.024 77.3658C721.944 77.3658 727.704 74.4458 731.304 68.6058L740.184 73.6458C734.344 82.6858 725.544 87.2058 713.784 87.2058C704.264 87.2058 696.504 84.2458 690.504 78.3258C684.584 72.3258 681.624 64.7658 681.624 55.6458C681.624 46.6058 684.544 39.0858 690.384 33.0858C696.224 27.0858 703.784 24.0858 713.064 24.0858C721.864 24.0858 729.024 27.2058 734.544 33.4458C740.144 39.6058 742.944 47.0458 742.944 55.7658C742.944 57.2858 742.824 58.8458 742.584 60.4458H692.304ZM713.064 33.9258C707.464 33.9258 702.824 35.5258 699.144 38.7258C695.464 41.8458 693.184 46.0458 692.304 51.3258H732.384C731.504 45.6458 729.264 41.3258 725.664 38.3658C722.064 35.4058 717.864 33.9258 713.064 33.9258ZM760.882 41.8458C760.882 44.1658 762.042 46.0458 764.362 47.4858C766.682 48.8458 769.482 49.9658 772.762 50.8458C776.042 51.6458 779.322 52.6058 782.602 53.7258C785.882 54.7658 788.682 56.6058 791.002 59.2458C793.322 61.8058 794.482 65.1258 794.482 69.2058C794.482 74.6458 792.362 79.0058 788.122 82.2858C783.962 85.5658 778.602 87.2058 772.042 87.2058C766.202 87.2058 761.202 85.9258 757.042 83.3658C752.882 80.8058 749.922 77.4058 748.162 73.1658L757.162 68.0058C758.122 70.8858 759.922 73.1658 762.562 74.8458C765.202 76.5258 768.362 77.3658 772.042 77.3658C775.482 77.3658 778.322 76.7258 780.562 75.4458C782.802 74.0858 783.922 72.0058 783.922 69.2058C783.922 66.8858 782.762 65.0458 780.442 63.6858C778.122 62.2458 775.322 61.1258 772.042 60.3258C768.762 59.4458 765.482 58.4458 762.202 57.3258C758.922 56.2058 756.122 54.3658 753.802 51.8058C751.482 49.2458 750.322 45.9658 750.322 41.9658C750.322 36.7658 752.322 32.4858 756.322 29.1258C760.402 25.7658 765.482 24.0858 771.562 24.0858C776.442 24.0858 780.762 25.2058 784.522 27.4458C788.362 29.6058 791.242 32.6458 793.162 36.5658L784.402 41.4858C782.242 36.3658 777.962 33.8058 771.562 33.8058C768.602 33.8058 766.082 34.5258 764.002 35.9658C761.922 37.3258 760.882 39.2858 760.882 41.8458Z" fill="black"/>
</svg>
