<svg width="491" height="87" viewBox="0 0 491 87" fill="none" xmlns="http://www.w3.org/2000/svg">
<mask id="path-1-inside-1_453_40517" fill="white">
<path d="M24.12 85.0059L0 1.00589H11.76L30.96 70.1259L51.36 1.00589H62.64L83.04 70.1259L102.24 1.00589H114L89.88 85.0059H76.92L57 17.9259L37.08 85.0059H24.12ZM124.372 59.8059C125.412 65.1659 127.852 69.3259 131.692 72.2859C135.612 75.2459 140.412 76.7259 146.092 76.7259C154.012 76.7259 159.772 73.8059 163.372 67.9659L172.252 73.0059C166.412 82.0459 157.612 86.5659 145.852 86.5659C136.332 86.5659 128.572 83.6059 122.572 77.6859C116.652 71.6859 113.692 64.1259 113.692 55.0059C113.692 45.9659 116.612 38.4459 122.452 32.4459C128.292 26.4459 135.852 23.4459 145.132 23.4459C153.932 23.4459 161.092 26.5659 166.612 32.8059C172.212 38.9659 175.012 46.4059 175.012 55.1259C175.012 56.6459 174.892 58.2059 174.652 59.8059H124.372ZM145.132 33.2859C139.532 33.2859 134.892 34.8859 131.212 38.0859C127.532 41.2059 125.252 45.4059 124.372 50.6859H164.452C163.572 45.0059 161.332 40.6859 157.732 37.7259C154.132 34.7659 149.932 33.2859 145.132 33.2859ZM219.412 23.4459C227.812 23.4459 234.973 26.5259 240.893 32.6859C246.813 38.7659 249.773 46.2059 249.773 55.0059C249.773 63.8059 246.813 71.2859 240.893 77.4459C234.973 83.5259 227.812 86.5659 219.412 86.5659C209.492 86.5659 201.932 82.6059 196.732 74.6859V85.0059H186.292V1.00589H196.732V35.3259C201.932 27.4059 209.492 23.4459 219.412 23.4459ZM218.092 76.4859C224.092 76.4859 229.132 74.4459 233.212 70.3659C237.292 66.2059 239.333 61.0859 239.333 55.0059C239.333 48.9259 237.292 43.8459 233.212 39.7659C229.132 35.6059 224.092 33.5259 218.092 33.5259C212.012 33.5259 206.932 35.6059 202.852 39.7659C198.772 43.8459 196.732 48.9259 196.732 55.0059C196.732 61.0859 198.772 66.2059 202.852 70.3659C206.932 74.4459 212.012 76.4859 218.092 76.4859ZM269.221 41.2059C269.221 43.5259 270.381 45.4059 272.701 46.8459C275.021 48.2059 277.821 49.3259 281.101 50.2059C284.381 51.0059 287.661 51.9659 290.941 53.0859C294.221 54.1259 297.021 55.9659 299.341 58.6059C301.661 61.1659 302.821 64.4859 302.821 68.5659C302.821 74.0059 300.701 78.3659 296.461 81.6459C292.301 84.9259 286.941 86.5659 280.381 86.5659C274.541 86.5659 269.541 85.2859 265.381 82.7259C261.221 80.1659 258.261 76.7659 256.501 72.5259L265.501 67.3659C266.461 70.2459 268.261 72.5259 270.901 74.2059C273.541 75.8859 276.701 76.7259 280.381 76.7259C283.821 76.7259 286.661 76.0859 288.901 74.8059C291.141 73.4459 292.261 71.3659 292.261 68.5659C292.261 66.2459 291.101 64.4059 288.781 63.0459C286.461 61.6059 283.661 60.4859 280.381 59.6859C277.101 58.8059 273.821 57.8059 270.541 56.6859C267.261 55.5659 264.461 53.7259 262.141 51.1659C259.821 48.6059 258.661 45.3259 258.661 41.3259C258.661 36.1259 260.661 31.8459 264.661 28.4859C268.741 25.1259 273.821 23.4459 279.901 23.4459C284.781 23.4459 289.101 24.5659 292.861 26.8059C296.701 28.9659 299.581 32.0059 301.501 35.9259L292.741 40.8459C290.581 35.7259 286.301 33.1659 279.901 33.1659C276.941 33.1659 274.421 33.8859 272.341 35.3259C270.261 36.6859 269.221 38.6459 269.221 41.2059ZM319.156 14.0859C317.156 14.0859 315.476 13.4059 314.116 12.0459C312.756 10.6859 312.076 9.0459 312.076 7.12589C312.076 5.20589 312.756 3.56589 314.116 2.20589C315.476 0.765896 317.156 0.0458984 319.156 0.0458984C321.076 0.0458984 322.716 0.765896 324.076 2.20589C325.436 3.56589 326.116 5.20589 326.116 7.12589C326.116 9.0459 325.436 10.6859 324.076 12.0459C322.716 13.4059 321.076 14.0859 319.156 14.0859ZM313.876 85.0059V25.0059H324.316V85.0059H313.876ZM372.163 35.0859H356.203V67.6059C356.203 70.5659 356.763 72.6859 357.883 73.9659C359.083 75.1659 360.883 75.8059 363.283 75.8859C365.683 75.8859 368.643 75.8059 372.163 75.6459V85.0059C363.043 86.2059 356.363 85.4859 352.123 82.8459C347.883 80.1259 345.763 75.0459 345.763 67.6059V35.0859H333.883V25.0059H345.763V11.3259L356.203 8.20589V25.0059H372.163V35.0859ZM388.076 59.8059C389.116 65.1659 391.556 69.3259 395.396 72.2859C399.316 75.2459 404.116 76.7259 409.796 76.7259C417.716 76.7259 423.476 73.8059 427.076 67.9659L435.956 73.0059C430.116 82.0459 421.316 86.5659 409.556 86.5659C400.036 86.5659 392.276 83.6059 386.276 77.6859C380.356 71.6859 377.396 64.1259 377.396 55.0059C377.396 45.9659 380.316 38.4459 386.156 32.4459C391.996 26.4459 399.556 23.4459 408.836 23.4459C417.636 23.4459 424.796 26.5659 430.316 32.8059C435.916 38.9659 438.716 46.4059 438.716 55.1259C438.716 56.6459 438.596 58.2059 438.356 59.8059H388.076ZM408.836 33.2859C403.236 33.2859 398.596 34.8859 394.916 38.0859C391.236 41.2059 388.956 45.4059 388.076 50.6859H428.156C427.276 45.0059 425.036 40.6859 421.436 37.7259C417.836 34.7659 413.636 33.2859 408.836 33.2859ZM456.653 41.2059C456.653 43.5259 457.813 45.4059 460.133 46.8459C462.453 48.2059 465.253 49.3259 468.533 50.2059C471.813 51.0059 475.093 51.9659 478.373 53.0859C481.653 54.1259 484.453 55.9659 486.773 58.6059C489.093 61.1659 490.253 64.4859 490.253 68.5659C490.253 74.0059 488.133 78.3659 483.893 81.6459C479.733 84.9259 474.373 86.5659 467.813 86.5659C461.973 86.5659 456.973 85.2859 452.813 82.7259C448.653 80.1659 445.693 76.7659 443.933 72.5259L452.933 67.3659C453.893 70.2459 455.693 72.5259 458.333 74.2059C460.973 75.8859 464.133 76.7259 467.813 76.7259C471.253 76.7259 474.093 76.0859 476.333 74.8059C478.573 73.4459 479.693 71.3659 479.693 68.5659C479.693 66.2459 478.533 64.4059 476.213 63.0459C473.893 61.6059 471.093 60.4859 467.813 59.6859C464.533 58.8059 461.253 57.8059 457.973 56.6859C454.693 55.5659 451.893 53.7259 449.573 51.1659C447.253 48.6059 446.093 45.3259 446.093 41.3259C446.093 36.1259 448.093 31.8459 452.093 28.4859C456.173 25.1259 461.253 23.4459 467.333 23.4459C472.213 23.4459 476.533 24.5659 480.293 26.8059C484.133 28.9659 487.013 32.0059 488.933 35.9259L480.173 40.8459C478.013 35.7259 473.733 33.1659 467.333 33.1659C464.373 33.1659 461.853 33.8859 459.773 35.3259C457.693 36.6859 456.653 38.6459 456.653 41.2059Z"/>
</mask>
<path d="M24.12 85.0059L0 1.00589H11.76L30.96 70.1259L51.36 1.00589H62.64L83.04 70.1259L102.24 1.00589H114L89.88 85.0059H76.92L57 17.9259L37.08 85.0059H24.12ZM124.372 59.8059C125.412 65.1659 127.852 69.3259 131.692 72.2859C135.612 75.2459 140.412 76.7259 146.092 76.7259C154.012 76.7259 159.772 73.8059 163.372 67.9659L172.252 73.0059C166.412 82.0459 157.612 86.5659 145.852 86.5659C136.332 86.5659 128.572 83.6059 122.572 77.6859C116.652 71.6859 113.692 64.1259 113.692 55.0059C113.692 45.9659 116.612 38.4459 122.452 32.4459C128.292 26.4459 135.852 23.4459 145.132 23.4459C153.932 23.4459 161.092 26.5659 166.612 32.8059C172.212 38.9659 175.012 46.4059 175.012 55.1259C175.012 56.6459 174.892 58.2059 174.652 59.8059H124.372ZM145.132 33.2859C139.532 33.2859 134.892 34.8859 131.212 38.0859C127.532 41.2059 125.252 45.4059 124.372 50.6859H164.452C163.572 45.0059 161.332 40.6859 157.732 37.7259C154.132 34.7659 149.932 33.2859 145.132 33.2859ZM219.412 23.4459C227.812 23.4459 234.973 26.5259 240.893 32.6859C246.813 38.7659 249.773 46.2059 249.773 55.0059C249.773 63.8059 246.813 71.2859 240.893 77.4459C234.973 83.5259 227.812 86.5659 219.412 86.5659C209.492 86.5659 201.932 82.6059 196.732 74.6859V85.0059H186.292V1.00589H196.732V35.3259C201.932 27.4059 209.492 23.4459 219.412 23.4459ZM218.092 76.4859C224.092 76.4859 229.132 74.4459 233.212 70.3659C237.292 66.2059 239.333 61.0859 239.333 55.0059C239.333 48.9259 237.292 43.8459 233.212 39.7659C229.132 35.6059 224.092 33.5259 218.092 33.5259C212.012 33.5259 206.932 35.6059 202.852 39.7659C198.772 43.8459 196.732 48.9259 196.732 55.0059C196.732 61.0859 198.772 66.2059 202.852 70.3659C206.932 74.4459 212.012 76.4859 218.092 76.4859ZM269.221 41.2059C269.221 43.5259 270.381 45.4059 272.701 46.8459C275.021 48.2059 277.821 49.3259 281.101 50.2059C284.381 51.0059 287.661 51.9659 290.941 53.0859C294.221 54.1259 297.021 55.9659 299.341 58.6059C301.661 61.1659 302.821 64.4859 302.821 68.5659C302.821 74.0059 300.701 78.3659 296.461 81.6459C292.301 84.9259 286.941 86.5659 280.381 86.5659C274.541 86.5659 269.541 85.2859 265.381 82.7259C261.221 80.1659 258.261 76.7659 256.501 72.5259L265.501 67.3659C266.461 70.2459 268.261 72.5259 270.901 74.2059C273.541 75.8859 276.701 76.7259 280.381 76.7259C283.821 76.7259 286.661 76.0859 288.901 74.8059C291.141 73.4459 292.261 71.3659 292.261 68.5659C292.261 66.2459 291.101 64.4059 288.781 63.0459C286.461 61.6059 283.661 60.4859 280.381 59.6859C277.101 58.8059 273.821 57.8059 270.541 56.6859C267.261 55.5659 264.461 53.7259 262.141 51.1659C259.821 48.6059 258.661 45.3259 258.661 41.3259C258.661 36.1259 260.661 31.8459 264.661 28.4859C268.741 25.1259 273.821 23.4459 279.901 23.4459C284.781 23.4459 289.101 24.5659 292.861 26.8059C296.701 28.9659 299.581 32.0059 301.501 35.9259L292.741 40.8459C290.581 35.7259 286.301 33.1659 279.901 33.1659C276.941 33.1659 274.421 33.8859 272.341 35.3259C270.261 36.6859 269.221 38.6459 269.221 41.2059ZM319.156 14.0859C317.156 14.0859 315.476 13.4059 314.116 12.0459C312.756 10.6859 312.076 9.0459 312.076 7.12589C312.076 5.20589 312.756 3.56589 314.116 2.20589C315.476 0.765896 317.156 0.0458984 319.156 0.0458984C321.076 0.0458984 322.716 0.765896 324.076 2.20589C325.436 3.56589 326.116 5.20589 326.116 7.12589C326.116 9.0459 325.436 10.6859 324.076 12.0459C322.716 13.4059 321.076 14.0859 319.156 14.0859ZM313.876 85.0059V25.0059H324.316V85.0059H313.876ZM372.163 35.0859H356.203V67.6059C356.203 70.5659 356.763 72.6859 357.883 73.9659C359.083 75.1659 360.883 75.8059 363.283 75.8859C365.683 75.8859 368.643 75.8059 372.163 75.6459V85.0059C363.043 86.2059 356.363 85.4859 352.123 82.8459C347.883 80.1259 345.763 75.0459 345.763 67.6059V35.0859H333.883V25.0059H345.763V11.3259L356.203 8.20589V25.0059H372.163V35.0859ZM388.076 59.8059C389.116 65.1659 391.556 69.3259 395.396 72.2859C399.316 75.2459 404.116 76.7259 409.796 76.7259C417.716 76.7259 423.476 73.8059 427.076 67.9659L435.956 73.0059C430.116 82.0459 421.316 86.5659 409.556 86.5659C400.036 86.5659 392.276 83.6059 386.276 77.6859C380.356 71.6859 377.396 64.1259 377.396 55.0059C377.396 45.9659 380.316 38.4459 386.156 32.4459C391.996 26.4459 399.556 23.4459 408.836 23.4459C417.636 23.4459 424.796 26.5659 430.316 32.8059C435.916 38.9659 438.716 46.4059 438.716 55.1259C438.716 56.6459 438.596 58.2059 438.356 59.8059H388.076ZM408.836 33.2859C403.236 33.2859 398.596 34.8859 394.916 38.0859C391.236 41.2059 388.956 45.4059 388.076 50.6859H428.156C427.276 45.0059 425.036 40.6859 421.436 37.7259C417.836 34.7659 413.636 33.2859 408.836 33.2859ZM456.653 41.2059C456.653 43.5259 457.813 45.4059 460.133 46.8459C462.453 48.2059 465.253 49.3259 468.533 50.2059C471.813 51.0059 475.093 51.9659 478.373 53.0859C481.653 54.1259 484.453 55.9659 486.773 58.6059C489.093 61.1659 490.253 64.4859 490.253 68.5659C490.253 74.0059 488.133 78.3659 483.893 81.6459C479.733 84.9259 474.373 86.5659 467.813 86.5659C461.973 86.5659 456.973 85.2859 452.813 82.7259C448.653 80.1659 445.693 76.7659 443.933 72.5259L452.933 67.3659C453.893 70.2459 455.693 72.5259 458.333 74.2059C460.973 75.8859 464.133 76.7259 467.813 76.7259C471.253 76.7259 474.093 76.0859 476.333 74.8059C478.573 73.4459 479.693 71.3659 479.693 68.5659C479.693 66.2459 478.533 64.4059 476.213 63.0459C473.893 61.6059 471.093 60.4859 467.813 59.6859C464.533 58.8059 461.253 57.8059 457.973 56.6859C454.693 55.5659 451.893 53.7259 449.573 51.1659C447.253 48.6059 446.093 45.3259 446.093 41.3259C446.093 36.1259 448.093 31.8459 452.093 28.4859C456.173 25.1259 461.253 23.4459 467.333 23.4459C472.213 23.4459 476.533 24.5659 480.293 26.8059C484.133 28.9659 487.013 32.0059 488.933 35.9259L480.173 40.8459C478.013 35.7259 473.733 33.1659 467.333 33.1659C464.373 33.1659 461.853 33.8859 459.773 35.3259C457.693 36.6859 456.653 38.6459 456.653 41.2059Z" stroke="black" stroke-width="2" mask="url(#path-1-inside-1_453_40517)"/>
</svg>
