<svg width="795" height="112" viewBox="0 0 795 112" fill="none" xmlns="http://www.w3.org/2000/svg">
<mask id="path-1-inside-1_453_40514" fill="white">
<path d="M11.16 75.0482H47.4V85.6082H0V1.60819H11.16V75.0482ZM104.13 25.6082H114.57V85.6082H104.13V75.2882C98.93 83.2082 91.37 87.1682 81.45 87.1682C73.05 87.1682 65.89 84.1282 59.97 78.0482C54.05 71.8882 51.09 64.4082 51.09 55.6082C51.09 46.8082 54.05 39.3682 59.97 33.2882C65.89 27.1282 73.05 24.0482 81.45 24.0482C91.37 24.0482 98.93 28.0082 104.13 35.9282V25.6082ZM82.77 77.0882C88.85 77.0882 93.93 75.0482 98.01 70.9682C102.09 66.8082 104.13 61.6882 104.13 55.6082C104.13 49.5282 102.09 44.4482 98.01 40.3682C93.93 36.2082 88.85 34.1282 82.77 34.1282C76.77 34.1282 71.73 36.2082 67.65 40.3682C63.57 44.4482 61.53 49.5282 61.53 55.6082C61.53 61.6882 63.57 66.8082 67.65 70.9682C71.73 75.0482 76.77 77.0882 82.77 77.0882ZM159.548 24.0482C166.588 24.0482 172.227 26.2882 176.467 30.7682C180.707 35.1682 182.827 41.1682 182.827 48.7682V85.6082H172.387V49.3682C172.387 44.4882 171.068 40.7282 168.428 38.0882C165.788 35.3682 162.147 34.0082 157.507 34.0082C152.307 34.0082 148.108 35.6482 144.908 38.9282C141.708 42.1282 140.107 47.0882 140.107 53.8082V85.6082H129.667V25.6082H140.107V34.2482C144.347 27.4482 150.827 24.0482 159.548 24.0482ZM246.362 1.60819H256.802V85.6082H246.362V75.2882C241.162 83.2082 233.602 87.1682 223.682 87.1682C215.282 87.1682 208.122 84.1282 202.202 78.0482C196.282 71.8882 193.322 64.4082 193.322 55.6082C193.322 46.8082 196.282 39.3682 202.202 33.2882C208.122 27.1282 215.282 24.0482 223.682 24.0482C233.602 24.0482 241.162 28.0082 246.362 35.9282V1.60819ZM225.002 77.0882C231.082 77.0882 236.162 75.0482 240.242 70.9682C244.322 66.8082 246.362 61.6882 246.362 55.6082C246.362 49.5282 244.322 44.4482 240.242 40.3682C236.162 36.2082 231.082 34.1282 225.002 34.1282C219.002 34.1282 213.962 36.2082 209.882 40.3682C205.802 44.4482 203.762 49.5282 203.762 55.6082C203.762 61.6882 205.802 66.8082 209.882 70.9682C213.962 75.0482 219.002 77.0882 225.002 77.0882ZM277.179 14.6882C275.179 14.6882 273.499 14.0082 272.139 12.6482C270.779 11.2882 270.099 9.64819 270.099 7.72819C270.099 5.80819 270.779 4.16819 272.139 2.80819C273.499 1.36819 275.179 0.648193 277.179 0.648193C279.099 0.648193 280.739 1.36819 282.099 2.80819C283.459 4.16819 284.139 5.80819 284.139 7.72819C284.139 9.64819 283.459 11.2882 282.099 12.6482C280.739 14.0082 279.099 14.6882 277.179 14.6882ZM271.899 85.6082V25.6082H282.339V85.6082H271.899ZM327.427 24.0482C334.467 24.0482 340.107 26.2882 344.347 30.7682C348.587 35.1682 350.707 41.1682 350.707 48.7682V85.6082H340.267V49.3682C340.267 44.4882 338.947 40.7282 336.307 38.0882C333.667 35.3682 330.027 34.0082 325.387 34.0082C320.187 34.0082 315.987 35.6482 312.787 38.9282C309.587 42.1282 307.987 47.0882 307.987 53.8082V85.6082H297.547V25.6082H307.987V34.2482C312.227 27.4482 318.707 24.0482 327.427 24.0482ZM414.361 25.6082H424.681V83.0882C424.681 91.9682 421.681 98.8482 415.681 103.728C409.681 108.688 402.481 111.168 394.081 111.168C387.361 111.168 381.561 109.888 376.681 107.328C371.801 104.848 368.121 101.248 365.641 96.5282L374.761 91.3682C378.041 98.0882 384.561 101.448 394.321 101.448C400.561 101.448 405.441 99.8082 408.961 96.5282C412.561 93.2482 414.361 88.7682 414.361 83.0882V74.5682C409.081 82.5682 401.561 86.5682 391.801 86.5682C383.241 86.5682 376.001 83.5282 370.081 77.4482C364.161 71.3682 361.201 63.9682 361.201 55.2482C361.201 46.5282 364.161 39.1682 370.081 33.1682C376.001 27.0882 383.241 24.0482 391.801 24.0482C401.641 24.0482 409.161 28.0082 414.361 35.9282V25.6082ZM377.761 70.4882C381.841 74.5682 386.921 76.6082 393.001 76.6082C399.081 76.6082 404.161 74.5682 408.241 70.4882C412.321 66.4082 414.361 61.3282 414.361 55.2482C414.361 49.2482 412.321 44.2082 408.241 40.1282C404.161 36.0482 399.081 34.0082 393.001 34.0082C386.921 34.0082 381.841 36.0482 377.761 40.1282C373.681 44.2082 371.641 49.2482 371.641 55.2482C371.641 61.3282 373.681 66.4082 377.761 70.4882ZM500.618 1.60819C508.378 1.60819 514.818 4.20819 519.938 9.40819C525.138 14.5282 527.738 20.9282 527.738 28.6082C527.738 36.2082 525.138 42.6082 519.938 47.8082C514.818 53.0082 508.378 55.6082 500.618 55.6082H481.298V85.6082H470.138V1.60819H500.618ZM500.618 45.1682C505.258 45.1682 509.098 43.6082 512.138 40.4882C515.178 37.2882 516.698 33.3282 516.698 28.6082C516.698 23.8082 515.178 19.8482 512.138 16.7282C509.098 13.6082 505.258 12.0482 500.618 12.0482H481.298V45.1682H500.618ZM584.229 25.6082H594.669V85.6082H584.229V75.2882C579.029 83.2082 571.469 87.1682 561.549 87.1682C553.149 87.1682 545.989 84.1282 540.069 78.0482C534.149 71.8882 531.189 64.4082 531.189 55.6082C531.189 46.8082 534.149 39.3682 540.069 33.2882C545.989 27.1282 553.149 24.0482 561.549 24.0482C571.469 24.0482 579.029 28.0082 584.229 35.9282V25.6082ZM562.869 77.0882C568.949 77.0882 574.029 75.0482 578.109 70.9682C582.189 66.8082 584.229 61.6882 584.229 55.6082C584.229 49.5282 582.189 44.4482 578.109 40.3682C574.029 36.2082 568.949 34.1282 562.869 34.1282C556.869 34.1282 551.829 36.2082 547.749 40.3682C543.669 44.4482 541.629 49.5282 541.629 55.6082C541.629 61.6882 543.669 66.8082 547.749 70.9682C551.829 75.0482 556.869 77.0882 562.869 77.0882ZM659.567 25.6082H669.887V83.0882C669.887 91.9682 666.887 98.8482 660.887 103.728C654.887 108.688 647.687 111.168 639.287 111.168C632.567 111.168 626.767 109.888 621.887 107.328C617.007 104.848 613.327 101.248 610.847 96.5282L619.967 91.3682C623.247 98.0882 629.767 101.448 639.527 101.448C645.767 101.448 650.647 99.8082 654.167 96.5282C657.767 93.2482 659.567 88.7682 659.567 83.0882V74.5682C654.287 82.5682 646.767 86.5682 637.007 86.5682C628.447 86.5682 621.207 83.5282 615.287 77.4482C609.367 71.3682 606.407 63.9682 606.407 55.2482C606.407 46.5282 609.367 39.1682 615.287 33.1682C621.207 27.0882 628.447 24.0482 637.007 24.0482C646.847 24.0482 654.367 28.0082 659.567 35.9282V25.6082ZM622.967 70.4882C627.047 74.5682 632.127 76.6082 638.207 76.6082C644.287 76.6082 649.367 74.5682 653.447 70.4882C657.527 66.4082 659.567 61.3282 659.567 55.2482C659.567 49.2482 657.527 44.2082 653.447 40.1282C649.367 36.0482 644.287 34.0082 638.207 34.0082C632.127 34.0082 627.047 36.0482 622.967 40.1282C618.887 44.2082 616.847 49.2482 616.847 55.2482C616.847 61.3282 618.887 66.4082 622.967 70.4882ZM692.304 60.4082C693.344 65.7682 695.784 69.9282 699.624 72.8882C703.544 75.8482 708.344 77.3282 714.024 77.3282C721.944 77.3282 727.704 74.4082 731.304 68.5682L740.184 73.6082C734.344 82.6482 725.544 87.1682 713.784 87.1682C704.264 87.1682 696.504 84.2082 690.504 78.2882C684.584 72.2882 681.624 64.7282 681.624 55.6082C681.624 46.5682 684.544 39.0482 690.384 33.0482C696.224 27.0482 703.784 24.0482 713.064 24.0482C721.864 24.0482 729.024 27.1682 734.544 33.4082C740.144 39.5682 742.944 47.0082 742.944 55.7282C742.944 57.2482 742.824 58.8082 742.584 60.4082H692.304ZM713.064 33.8882C707.464 33.8882 702.824 35.4882 699.144 38.6882C695.464 41.8082 693.184 46.0082 692.304 51.2882H732.384C731.504 45.6082 729.264 41.2882 725.664 38.3282C722.064 35.3682 717.864 33.8882 713.064 33.8882ZM760.882 41.8082C760.882 44.1282 762.042 46.0082 764.362 47.4482C766.682 48.8082 769.482 49.9282 772.762 50.8082C776.042 51.6082 779.322 52.5682 782.602 53.6882C785.882 54.7282 788.682 56.5682 791.002 59.2082C793.322 61.7682 794.482 65.0882 794.482 69.1682C794.482 74.6082 792.362 78.9682 788.122 82.2482C783.962 85.5282 778.602 87.1682 772.042 87.1682C766.202 87.1682 761.202 85.8882 757.042 83.3282C752.882 80.7682 749.922 77.3682 748.162 73.1282L757.162 67.9682C758.122 70.8482 759.922 73.1282 762.562 74.8082C765.202 76.4882 768.362 77.3282 772.042 77.3282C775.482 77.3282 778.322 76.6882 780.562 75.4082C782.802 74.0482 783.922 71.9682 783.922 69.1682C783.922 66.8482 782.762 65.0082 780.442 63.6482C778.122 62.2082 775.322 61.0882 772.042 60.2882C768.762 59.4082 765.482 58.4082 762.202 57.2882C758.922 56.1682 756.122 54.3282 753.802 51.7682C751.482 49.2082 750.322 45.9282 750.322 41.9282C750.322 36.7282 752.322 32.4482 756.322 29.0882C760.402 25.7282 765.482 24.0482 771.562 24.0482C776.442 24.0482 780.762 25.1682 784.522 27.4082C788.362 29.5682 791.242 32.6082 793.162 36.5282L784.402 41.4482C782.242 36.3282 777.962 33.7682 771.562 33.7682C768.602 33.7682 766.082 34.4882 764.002 35.9282C761.922 37.2882 760.882 39.2482 760.882 41.8082Z"/>
</mask>
<path d="M11.16 75.0482H47.4V85.6082H0V1.60819H11.16V75.0482ZM104.13 25.6082H114.57V85.6082H104.13V75.2882C98.93 83.2082 91.37 87.1682 81.45 87.1682C73.05 87.1682 65.89 84.1282 59.97 78.0482C54.05 71.8882 51.09 64.4082 51.09 55.6082C51.09 46.8082 54.05 39.3682 59.97 33.2882C65.89 27.1282 73.05 24.0482 81.45 24.0482C91.37 24.0482 98.93 28.0082 104.13 35.9282V25.6082ZM82.77 77.0882C88.85 77.0882 93.93 75.0482 98.01 70.9682C102.09 66.8082 104.13 61.6882 104.13 55.6082C104.13 49.5282 102.09 44.4482 98.01 40.3682C93.93 36.2082 88.85 34.1282 82.77 34.1282C76.77 34.1282 71.73 36.2082 67.65 40.3682C63.57 44.4482 61.53 49.5282 61.53 55.6082C61.53 61.6882 63.57 66.8082 67.65 70.9682C71.73 75.0482 76.77 77.0882 82.77 77.0882ZM159.548 24.0482C166.588 24.0482 172.227 26.2882 176.467 30.7682C180.707 35.1682 182.827 41.1682 182.827 48.7682V85.6082H172.387V49.3682C172.387 44.4882 171.068 40.7282 168.428 38.0882C165.788 35.3682 162.147 34.0082 157.507 34.0082C152.307 34.0082 148.108 35.6482 144.908 38.9282C141.708 42.1282 140.107 47.0882 140.107 53.8082V85.6082H129.667V25.6082H140.107V34.2482C144.347 27.4482 150.827 24.0482 159.548 24.0482ZM246.362 1.60819H256.802V85.6082H246.362V75.2882C241.162 83.2082 233.602 87.1682 223.682 87.1682C215.282 87.1682 208.122 84.1282 202.202 78.0482C196.282 71.8882 193.322 64.4082 193.322 55.6082C193.322 46.8082 196.282 39.3682 202.202 33.2882C208.122 27.1282 215.282 24.0482 223.682 24.0482C233.602 24.0482 241.162 28.0082 246.362 35.9282V1.60819ZM225.002 77.0882C231.082 77.0882 236.162 75.0482 240.242 70.9682C244.322 66.8082 246.362 61.6882 246.362 55.6082C246.362 49.5282 244.322 44.4482 240.242 40.3682C236.162 36.2082 231.082 34.1282 225.002 34.1282C219.002 34.1282 213.962 36.2082 209.882 40.3682C205.802 44.4482 203.762 49.5282 203.762 55.6082C203.762 61.6882 205.802 66.8082 209.882 70.9682C213.962 75.0482 219.002 77.0882 225.002 77.0882ZM277.179 14.6882C275.179 14.6882 273.499 14.0082 272.139 12.6482C270.779 11.2882 270.099 9.64819 270.099 7.72819C270.099 5.80819 270.779 4.16819 272.139 2.80819C273.499 1.36819 275.179 0.648193 277.179 0.648193C279.099 0.648193 280.739 1.36819 282.099 2.80819C283.459 4.16819 284.139 5.80819 284.139 7.72819C284.139 9.64819 283.459 11.2882 282.099 12.6482C280.739 14.0082 279.099 14.6882 277.179 14.6882ZM271.899 85.6082V25.6082H282.339V85.6082H271.899ZM327.427 24.0482C334.467 24.0482 340.107 26.2882 344.347 30.7682C348.587 35.1682 350.707 41.1682 350.707 48.7682V85.6082H340.267V49.3682C340.267 44.4882 338.947 40.7282 336.307 38.0882C333.667 35.3682 330.027 34.0082 325.387 34.0082C320.187 34.0082 315.987 35.6482 312.787 38.9282C309.587 42.1282 307.987 47.0882 307.987 53.8082V85.6082H297.547V25.6082H307.987V34.2482C312.227 27.4482 318.707 24.0482 327.427 24.0482ZM414.361 25.6082H424.681V83.0882C424.681 91.9682 421.681 98.8482 415.681 103.728C409.681 108.688 402.481 111.168 394.081 111.168C387.361 111.168 381.561 109.888 376.681 107.328C371.801 104.848 368.121 101.248 365.641 96.5282L374.761 91.3682C378.041 98.0882 384.561 101.448 394.321 101.448C400.561 101.448 405.441 99.8082 408.961 96.5282C412.561 93.2482 414.361 88.7682 414.361 83.0882V74.5682C409.081 82.5682 401.561 86.5682 391.801 86.5682C383.241 86.5682 376.001 83.5282 370.081 77.4482C364.161 71.3682 361.201 63.9682 361.201 55.2482C361.201 46.5282 364.161 39.1682 370.081 33.1682C376.001 27.0882 383.241 24.0482 391.801 24.0482C401.641 24.0482 409.161 28.0082 414.361 35.9282V25.6082ZM377.761 70.4882C381.841 74.5682 386.921 76.6082 393.001 76.6082C399.081 76.6082 404.161 74.5682 408.241 70.4882C412.321 66.4082 414.361 61.3282 414.361 55.2482C414.361 49.2482 412.321 44.2082 408.241 40.1282C404.161 36.0482 399.081 34.0082 393.001 34.0082C386.921 34.0082 381.841 36.0482 377.761 40.1282C373.681 44.2082 371.641 49.2482 371.641 55.2482C371.641 61.3282 373.681 66.4082 377.761 70.4882ZM500.618 1.60819C508.378 1.60819 514.818 4.20819 519.938 9.40819C525.138 14.5282 527.738 20.9282 527.738 28.6082C527.738 36.2082 525.138 42.6082 519.938 47.8082C514.818 53.0082 508.378 55.6082 500.618 55.6082H481.298V85.6082H470.138V1.60819H500.618ZM500.618 45.1682C505.258 45.1682 509.098 43.6082 512.138 40.4882C515.178 37.2882 516.698 33.3282 516.698 28.6082C516.698 23.8082 515.178 19.8482 512.138 16.7282C509.098 13.6082 505.258 12.0482 500.618 12.0482H481.298V45.1682H500.618ZM584.229 25.6082H594.669V85.6082H584.229V75.2882C579.029 83.2082 571.469 87.1682 561.549 87.1682C553.149 87.1682 545.989 84.1282 540.069 78.0482C534.149 71.8882 531.189 64.4082 531.189 55.6082C531.189 46.8082 534.149 39.3682 540.069 33.2882C545.989 27.1282 553.149 24.0482 561.549 24.0482C571.469 24.0482 579.029 28.0082 584.229 35.9282V25.6082ZM562.869 77.0882C568.949 77.0882 574.029 75.0482 578.109 70.9682C582.189 66.8082 584.229 61.6882 584.229 55.6082C584.229 49.5282 582.189 44.4482 578.109 40.3682C574.029 36.2082 568.949 34.1282 562.869 34.1282C556.869 34.1282 551.829 36.2082 547.749 40.3682C543.669 44.4482 541.629 49.5282 541.629 55.6082C541.629 61.6882 543.669 66.8082 547.749 70.9682C551.829 75.0482 556.869 77.0882 562.869 77.0882ZM659.567 25.6082H669.887V83.0882C669.887 91.9682 666.887 98.8482 660.887 103.728C654.887 108.688 647.687 111.168 639.287 111.168C632.567 111.168 626.767 109.888 621.887 107.328C617.007 104.848 613.327 101.248 610.847 96.5282L619.967 91.3682C623.247 98.0882 629.767 101.448 639.527 101.448C645.767 101.448 650.647 99.8082 654.167 96.5282C657.767 93.2482 659.567 88.7682 659.567 83.0882V74.5682C654.287 82.5682 646.767 86.5682 637.007 86.5682C628.447 86.5682 621.207 83.5282 615.287 77.4482C609.367 71.3682 606.407 63.9682 606.407 55.2482C606.407 46.5282 609.367 39.1682 615.287 33.1682C621.207 27.0882 628.447 24.0482 637.007 24.0482C646.847 24.0482 654.367 28.0082 659.567 35.9282V25.6082ZM622.967 70.4882C627.047 74.5682 632.127 76.6082 638.207 76.6082C644.287 76.6082 649.367 74.5682 653.447 70.4882C657.527 66.4082 659.567 61.3282 659.567 55.2482C659.567 49.2482 657.527 44.2082 653.447 40.1282C649.367 36.0482 644.287 34.0082 638.207 34.0082C632.127 34.0082 627.047 36.0482 622.967 40.1282C618.887 44.2082 616.847 49.2482 616.847 55.2482C616.847 61.3282 618.887 66.4082 622.967 70.4882ZM692.304 60.4082C693.344 65.7682 695.784 69.9282 699.624 72.8882C703.544 75.8482 708.344 77.3282 714.024 77.3282C721.944 77.3282 727.704 74.4082 731.304 68.5682L740.184 73.6082C734.344 82.6482 725.544 87.1682 713.784 87.1682C704.264 87.1682 696.504 84.2082 690.504 78.2882C684.584 72.2882 681.624 64.7282 681.624 55.6082C681.624 46.5682 684.544 39.0482 690.384 33.0482C696.224 27.0482 703.784 24.0482 713.064 24.0482C721.864 24.0482 729.024 27.1682 734.544 33.4082C740.144 39.5682 742.944 47.0082 742.944 55.7282C742.944 57.2482 742.824 58.8082 742.584 60.4082H692.304ZM713.064 33.8882C707.464 33.8882 702.824 35.4882 699.144 38.6882C695.464 41.8082 693.184 46.0082 692.304 51.2882H732.384C731.504 45.6082 729.264 41.2882 725.664 38.3282C722.064 35.3682 717.864 33.8882 713.064 33.8882ZM760.882 41.8082C760.882 44.1282 762.042 46.0082 764.362 47.4482C766.682 48.8082 769.482 49.9282 772.762 50.8082C776.042 51.6082 779.322 52.5682 782.602 53.6882C785.882 54.7282 788.682 56.5682 791.002 59.2082C793.322 61.7682 794.482 65.0882 794.482 69.1682C794.482 74.6082 792.362 78.9682 788.122 82.2482C783.962 85.5282 778.602 87.1682 772.042 87.1682C766.202 87.1682 761.202 85.8882 757.042 83.3282C752.882 80.7682 749.922 77.3682 748.162 73.1282L757.162 67.9682C758.122 70.8482 759.922 73.1282 762.562 74.8082C765.202 76.4882 768.362 77.3282 772.042 77.3282C775.482 77.3282 778.322 76.6882 780.562 75.4082C782.802 74.0482 783.922 71.9682 783.922 69.1682C783.922 66.8482 782.762 65.0082 780.442 63.6482C778.122 62.2082 775.322 61.0882 772.042 60.2882C768.762 59.4082 765.482 58.4082 762.202 57.2882C758.922 56.1682 756.122 54.3282 753.802 51.7682C751.482 49.2082 750.322 45.9282 750.322 41.9282C750.322 36.7282 752.322 32.4482 756.322 29.0882C760.402 25.7282 765.482 24.0482 771.562 24.0482C776.442 24.0482 780.762 25.1682 784.522 27.4082C788.362 29.5682 791.242 32.6082 793.162 36.5282L784.402 41.4482C782.242 36.3282 777.962 33.7682 771.562 33.7682C768.602 33.7682 766.082 34.4882 764.002 35.9282C761.922 37.2882 760.882 39.2482 760.882 41.8082Z" stroke="black" stroke-width="2" mask="url(#path-1-inside-1_453_40514)"/>
</svg>
