<svg width="960" height="112" viewBox="0 0 960 112" fill="none" xmlns="http://www.w3.org/2000/svg">
<path d="M24.8759 87.9999L0.755859 3.9999H12.5159L31.7159 73.1199L52.1159 3.9999H63.3959L83.7959 73.1199L102.996 3.9999H114.756L90.6359 87.9999H77.6759L57.7559 20.9199L37.8359 87.9999H24.8759ZM125.127 62.7999C126.167 68.1599 128.607 72.3199 132.447 75.2799C136.367 78.2399 141.167 79.7199 146.847 79.7199C154.767 79.7199 160.527 76.7999 164.127 70.9599L173.007 75.9999C167.167 85.0399 158.367 89.5599 146.607 89.5599C137.087 89.5599 129.327 86.5999 123.327 80.6799C117.407 74.6799 114.447 67.1199 114.447 57.9999C114.447 48.9599 117.367 41.4399 123.207 35.4399C129.047 29.4399 136.607 26.4399 145.887 26.4399C154.687 26.4399 161.847 29.5599 167.367 35.7999C172.967 41.9599 175.767 49.3999 175.767 58.1199C175.767 59.6399 175.647 61.1999 175.407 62.7999H125.127ZM145.887 36.2799C140.287 36.2799 135.647 37.8799 131.967 41.0799C128.287 44.1999 126.007 48.3999 125.127 53.6799H165.207C164.327 47.9999 162.087 43.6799 158.487 40.7199C154.887 37.7599 150.687 36.2799 145.887 36.2799ZM220.168 26.4399C228.568 26.4399 235.728 29.5199 241.648 35.6799C247.568 41.7599 250.528 49.1999 250.528 57.9999C250.528 66.7999 247.568 74.2799 241.648 80.4399C235.728 86.5199 228.568 89.5599 220.168 89.5599C210.248 89.5599 202.688 85.5999 197.488 77.6799V87.9999H187.048V3.9999H197.488V38.3199C202.688 30.3999 210.248 26.4399 220.168 26.4399ZM218.848 79.4799C224.848 79.4799 229.888 77.4399 233.968 73.3599C238.048 69.1999 240.088 64.0799 240.088 57.9999C240.088 51.9199 238.048 46.8399 233.968 42.7599C229.888 38.5999 224.848 36.5199 218.848 36.5199C212.768 36.5199 207.688 38.5999 203.608 42.7599C199.528 46.8399 197.488 51.9199 197.488 57.9999C197.488 64.0799 199.528 69.1999 203.608 73.3599C207.688 77.4399 212.768 79.4799 218.848 79.4799ZM347.946 87.9999L341.106 69.1599H303.306L296.466 87.9999H284.586L315.906 3.9999H328.506L359.826 87.9999H347.946ZM307.146 58.7199H337.266L322.146 17.3199L307.146 58.7199ZM401.055 26.4399C409.455 26.4399 416.615 29.5199 422.535 35.6799C428.455 41.7599 431.415 49.1999 431.415 57.9999C431.415 66.7999 428.455 74.2799 422.535 80.4399C416.615 86.5199 409.455 89.5599 401.055 89.5599C391.135 89.5599 383.575 85.5999 378.375 77.6799V112H367.935V27.9999H378.375V38.3199C383.575 30.3999 391.135 26.4399 401.055 26.4399ZM399.735 79.4799C405.735 79.4799 410.775 77.4399 414.855 73.3599C418.935 69.1999 420.975 64.0799 420.975 57.9999C420.975 51.9199 418.935 46.8399 414.855 42.7599C410.775 38.5999 405.735 36.5199 399.735 36.5199C393.655 36.5199 388.575 38.5999 384.495 42.7599C380.415 46.8399 378.375 51.9199 378.375 57.9999C378.375 64.0799 380.415 69.1999 384.495 73.3599C388.575 77.4399 393.655 79.4799 399.735 79.4799ZM476.273 26.4399C484.673 26.4399 491.833 29.5199 497.753 35.6799C503.673 41.7599 506.633 49.1999 506.633 57.9999C506.633 66.7999 503.673 74.2799 497.753 80.4399C491.833 86.5199 484.673 89.5599 476.273 89.5599C466.353 89.5599 458.793 85.5999 453.593 77.6799V112H443.153V27.9999H453.593V38.3199C458.793 30.3999 466.353 26.4399 476.273 26.4399ZM474.953 79.4799C480.953 79.4799 485.993 77.4399 490.073 73.3599C494.153 69.1999 496.193 64.0799 496.193 57.9999C496.193 51.9199 494.153 46.8399 490.073 42.7599C485.993 38.5999 480.953 36.5199 474.953 36.5199C468.873 36.5199 463.793 38.5999 459.713 42.7599C455.633 46.8399 453.593 51.9199 453.593 57.9999C453.593 64.0799 455.633 69.1999 459.713 73.3599C463.793 77.4399 468.873 79.4799 474.953 79.4799ZM518.37 87.9999V0.399902H528.81V87.9999H518.37ZM549.297 17.0799C547.297 17.0799 545.617 16.3999 544.257 15.0399C542.897 13.6799 542.217 12.0399 542.217 10.1199C542.217 8.1999 542.897 6.5599 544.257 5.1999C545.617 3.7599 547.297 3.0399 549.297 3.0399C551.217 3.0399 552.857 3.7599 554.217 5.1999C555.577 6.5599 556.257 8.1999 556.257 10.1199C556.257 12.0399 555.577 13.6799 554.217 15.0399C552.857 16.3999 551.217 17.0799 549.297 17.0799ZM544.017 87.9999V27.9999H554.457V87.9999H544.017ZM597.865 89.5599C588.825 89.5599 581.305 86.5599 575.305 80.5599C569.305 74.4799 566.305 66.9599 566.305 57.9999C566.305 49.0399 569.305 41.5599 575.305 35.5599C581.305 29.4799 588.825 26.4399 597.865 26.4399C603.785 26.4399 609.105 27.8799 613.825 30.7599C618.545 33.5599 622.065 37.3599 624.385 42.1599L615.625 47.1999C614.105 43.9999 611.745 41.4399 608.545 39.5199C605.425 37.5999 601.865 36.6399 597.865 36.6399C591.865 36.6399 586.825 38.6799 582.745 42.7599C578.745 46.8399 576.745 51.9199 576.745 57.9999C576.745 63.9999 578.745 69.0399 582.745 73.1199C586.825 77.1999 591.865 79.2399 597.865 79.2399C601.865 79.2399 605.465 78.3199 608.665 76.4799C611.865 74.5599 614.305 71.9999 615.985 68.7999L624.865 73.9599C622.305 78.6799 618.625 82.4799 613.825 85.3599C609.025 88.1599 603.705 89.5599 597.865 89.5599ZM683.312 27.9999H693.752V87.9999H683.312V77.6799C678.112 85.5999 670.552 89.5599 660.632 89.5599C652.232 89.5599 645.072 86.5199 639.152 80.4399C633.232 74.2799 630.272 66.7999 630.272 57.9999C630.272 49.1999 633.232 41.7599 639.152 35.6799C645.072 29.5199 652.232 26.4399 660.632 26.4399C670.552 26.4399 678.112 30.3999 683.312 38.3199V27.9999ZM661.952 79.4799C668.032 79.4799 673.112 77.4399 677.192 73.3599C681.272 69.1999 683.312 64.0799 683.312 57.9999C683.312 51.9199 681.272 46.8399 677.192 42.7599C673.112 38.5999 668.032 36.5199 661.952 36.5199C655.952 36.5199 650.912 38.5999 646.832 42.7599C642.752 46.8399 640.712 51.9199 640.712 57.9999C640.712 64.0799 642.752 69.1999 646.832 73.3599C650.912 77.4399 655.952 79.4799 661.952 79.4799ZM741.49 38.0799H725.53V70.5999C725.53 73.5599 726.09 75.6799 727.21 76.9599C728.41 78.1599 730.21 78.7999 732.61 78.8799C735.01 78.8799 737.97 78.7999 741.49 78.6399V87.9999C732.37 89.1999 725.69 88.4799 721.45 85.8399C717.21 83.1199 715.09 78.0399 715.09 70.5999V38.0799H703.21V27.9999H715.09V14.3199L725.53 11.1999V27.9999H741.49V38.0799ZM758.41 17.0799C756.41 17.0799 754.73 16.3999 753.37 15.0399C752.01 13.6799 751.33 12.0399 751.33 10.1199C751.33 8.1999 752.01 6.5599 753.37 5.1999C754.73 3.7599 756.41 3.0399 758.41 3.0399C760.33 3.0399 761.97 3.7599 763.33 5.1999C764.69 6.5599 765.37 8.1999 765.37 10.1199C765.37 12.0399 764.69 13.6799 763.33 15.0399C761.97 16.3999 760.33 17.0799 758.41 17.0799ZM753.13 87.9999V27.9999H763.57V87.9999H753.13ZM829.417 80.4399C823.257 86.5199 815.777 89.5599 806.977 89.5599C798.177 89.5599 790.697 86.5199 784.537 80.4399C778.457 74.3599 775.417 66.8799 775.417 57.9999C775.417 49.1199 778.457 41.6399 784.537 35.5599C790.697 29.4799 798.177 26.4399 806.977 26.4399C815.777 26.4399 823.257 29.4799 829.417 35.5599C835.577 41.6399 838.657 49.1199 838.657 57.9999C838.657 66.8799 835.577 74.3599 829.417 80.4399ZM806.977 79.3599C812.977 79.3599 818.017 77.3199 822.097 73.2399C826.177 69.1599 828.217 64.0799 828.217 57.9999C828.217 51.9199 826.177 46.8399 822.097 42.7599C818.017 38.6799 812.977 36.6399 806.977 36.6399C801.057 36.6399 796.057 38.6799 791.977 42.7599C787.897 46.8399 785.857 51.9199 785.857 57.9999C785.857 64.0799 787.897 69.1599 791.977 73.2399C796.057 77.3199 801.057 79.3599 806.977 79.3599ZM880.124 26.4399C887.164 26.4399 892.804 28.6799 897.044 33.1599C901.284 37.5599 903.404 43.5599 903.404 51.1599V87.9999H892.964V51.7599C892.964 46.8799 891.644 43.1199 889.004 40.4799C886.364 37.7599 882.724 36.3999 878.084 36.3999C872.884 36.3999 868.684 38.0399 865.484 41.3199C862.284 44.5199 860.684 49.4799 860.684 56.1999V87.9999H850.244V27.9999H860.684V36.6399C864.924 29.8399 871.404 26.4399 880.124 26.4399ZM926.259 44.1999C926.259 46.5199 927.419 48.3999 929.739 49.8399C932.059 51.1999 934.859 52.3199 938.139 53.1999C941.419 53.9999 944.699 54.9599 947.979 56.0799C951.259 57.1199 954.059 58.9599 956.379 61.5999C958.699 64.1599 959.859 67.4799 959.859 71.5599C959.859 76.9999 957.739 81.3599 953.499 84.6399C949.339 87.9199 943.979 89.5599 937.419 89.5599C931.579 89.5599 926.579 88.2799 922.419 85.7199C918.259 83.1599 915.299 79.7599 913.539 75.5199L922.539 70.3599C923.499 73.2399 925.299 75.5199 927.939 77.1999C930.579 78.8799 933.739 79.7199 937.419 79.7199C940.859 79.7199 943.699 79.0799 945.939 77.7999C948.179 76.4399 949.299 74.3599 949.299 71.5599C949.299 69.2399 948.139 67.3999 945.819 66.0399C943.499 64.5999 940.699 63.4799 937.419 62.6799C934.139 61.7999 930.859 60.7999 927.579 59.6799C924.299 58.5599 921.499 56.7199 919.179 54.1599C916.859 51.5999 915.699 48.3199 915.699 44.3199C915.699 39.1199 917.699 34.8399 921.699 31.4799C925.779 28.1199 930.859 26.4399 936.939 26.4399C941.819 26.4399 946.139 27.5599 949.899 29.7999C953.739 31.9599 956.619 34.9999 958.539 38.9199L949.779 43.8399C947.619 38.7199 943.339 36.1599 936.939 36.1599C933.979 36.1599 931.459 36.8799 929.379 38.3199C927.299 39.6799 926.259 41.6399 926.259 44.1999Z" fill="black"/>
</svg>
