<svg width="491" height="88" viewBox="0 0 491 88" fill="none" xmlns="http://www.w3.org/2000/svg">
<path d="M24.12 85.5645L0 1.56449H11.76L30.96 70.6845L51.36 1.56449H62.64L83.04 70.6845L102.24 1.56449H114L89.88 85.5645H76.92L57 18.4845L37.08 85.5645H24.12ZM124.372 60.3645C125.412 65.7245 127.852 69.8845 131.692 72.8445C135.612 75.8045 140.412 77.2845 146.092 77.2845C154.012 77.2845 159.772 74.3645 163.372 68.5245L172.252 73.5645C166.412 82.6045 157.612 87.1245 145.852 87.1245C136.332 87.1245 128.572 84.1645 122.572 78.2445C116.652 72.2445 113.692 64.6845 113.692 55.5645C113.692 46.5245 116.612 39.0045 122.452 33.0045C128.292 27.0045 135.852 24.0045 145.132 24.0045C153.932 24.0045 161.092 27.1245 166.612 33.3645C172.212 39.5245 175.012 46.9645 175.012 55.6845C175.012 57.2045 174.892 58.7645 174.652 60.3645H124.372ZM145.132 33.8445C139.532 33.8445 134.892 35.4445 131.212 38.6445C127.532 41.7645 125.252 45.9645 124.372 51.2445H164.452C163.572 45.5645 161.332 41.2445 157.732 38.2845C154.132 35.3245 149.932 33.8445 145.132 33.8445ZM219.412 24.0045C227.812 24.0045 234.973 27.0845 240.893 33.2445C246.813 39.3245 249.773 46.7645 249.773 55.5645C249.773 64.3645 246.813 71.8445 240.893 78.0045C234.973 84.0845 227.812 87.1245 219.412 87.1245C209.492 87.1245 201.932 83.1645 196.732 75.2445V85.5645H186.292V1.56449H196.732V35.8845C201.932 27.9645 209.492 24.0045 219.412 24.0045ZM218.092 77.0445C224.092 77.0445 229.132 75.0045 233.212 70.9245C237.292 66.7645 239.333 61.6445 239.333 55.5645C239.333 49.4845 237.292 44.4045 233.212 40.3245C229.132 36.1645 224.092 34.0845 218.092 34.0845C212.012 34.0845 206.932 36.1645 202.852 40.3245C198.772 44.4045 196.732 49.4845 196.732 55.5645C196.732 61.6445 198.772 66.7645 202.852 70.9245C206.932 75.0045 212.012 77.0445 218.092 77.0445ZM269.221 41.7645C269.221 44.0845 270.381 45.9645 272.701 47.4045C275.021 48.7645 277.821 49.8845 281.101 50.7645C284.381 51.5645 287.661 52.5245 290.941 53.6445C294.221 54.6845 297.021 56.5245 299.341 59.1645C301.661 61.7245 302.821 65.0445 302.821 69.1245C302.821 74.5645 300.701 78.9245 296.461 82.2045C292.301 85.4845 286.941 87.1245 280.381 87.1245C274.541 87.1245 269.541 85.8445 265.381 83.2845C261.221 80.7245 258.261 77.3245 256.501 73.0845L265.501 67.9245C266.461 70.8045 268.261 73.0845 270.901 74.7645C273.541 76.4445 276.701 77.2845 280.381 77.2845C283.821 77.2845 286.661 76.6445 288.901 75.3645C291.141 74.0045 292.261 71.9245 292.261 69.1245C292.261 66.8045 291.101 64.9645 288.781 63.6045C286.461 62.1645 283.661 61.0445 280.381 60.2445C277.101 59.3645 273.821 58.3645 270.541 57.2445C267.261 56.1245 264.461 54.2845 262.141 51.7245C259.821 49.1645 258.661 45.8845 258.661 41.8845C258.661 36.6845 260.661 32.4045 264.661 29.0445C268.741 25.6845 273.821 24.0045 279.901 24.0045C284.781 24.0045 289.101 25.1245 292.861 27.3645C296.701 29.5245 299.581 32.5645 301.501 36.4845L292.741 41.4045C290.581 36.2845 286.301 33.7245 279.901 33.7245C276.941 33.7245 274.421 34.4445 272.341 35.8845C270.261 37.2445 269.221 39.2045 269.221 41.7645ZM319.156 14.6445C317.156 14.6445 315.476 13.9645 314.116 12.6045C312.756 11.2445 312.076 9.60449 312.076 7.68449C312.076 5.76449 312.756 4.12449 314.116 2.76449C315.476 1.32449 317.156 0.604492 319.156 0.604492C321.076 0.604492 322.716 1.32449 324.076 2.76449C325.436 4.12449 326.116 5.76449 326.116 7.68449C326.116 9.60449 325.436 11.2445 324.076 12.6045C322.716 13.9645 321.076 14.6445 319.156 14.6445ZM313.876 85.5645V25.5645H324.316V85.5645H313.876ZM372.163 35.6445H356.203V68.1645C356.203 71.1245 356.763 73.2445 357.883 74.5245C359.083 75.7245 360.883 76.3645 363.283 76.4445C365.683 76.4445 368.643 76.3645 372.163 76.2045V85.5645C363.043 86.7645 356.363 86.0445 352.123 83.4045C347.883 80.6845 345.763 75.6045 345.763 68.1645V35.6445H333.883V25.5645H345.763V11.8845L356.203 8.76449V25.5645H372.163V35.6445ZM388.076 60.3645C389.116 65.7245 391.556 69.8845 395.396 72.8445C399.316 75.8045 404.116 77.2845 409.796 77.2845C417.716 77.2845 423.476 74.3645 427.076 68.5245L435.956 73.5645C430.116 82.6045 421.316 87.1245 409.556 87.1245C400.036 87.1245 392.276 84.1645 386.276 78.2445C380.356 72.2445 377.396 64.6845 377.396 55.5645C377.396 46.5245 380.316 39.0045 386.156 33.0045C391.996 27.0045 399.556 24.0045 408.836 24.0045C417.636 24.0045 424.796 27.1245 430.316 33.3645C435.916 39.5245 438.716 46.9645 438.716 55.6845C438.716 57.2045 438.596 58.7645 438.356 60.3645H388.076ZM408.836 33.8445C403.236 33.8445 398.596 35.4445 394.916 38.6445C391.236 41.7645 388.956 45.9645 388.076 51.2445H428.156C427.276 45.5645 425.036 41.2445 421.436 38.2845C417.836 35.3245 413.636 33.8445 408.836 33.8445ZM456.653 41.7645C456.653 44.0845 457.813 45.9645 460.133 47.4045C462.453 48.7645 465.253 49.8845 468.533 50.7645C471.813 51.5645 475.093 52.5245 478.373 53.6445C481.653 54.6845 484.453 56.5245 486.773 59.1645C489.093 61.7245 490.253 65.0445 490.253 69.1245C490.253 74.5645 488.133 78.9245 483.893 82.2045C479.733 85.4845 474.373 87.1245 467.813 87.1245C461.973 87.1245 456.973 85.8445 452.813 83.2845C448.653 80.7245 445.693 77.3245 443.933 73.0845L452.933 67.9245C453.893 70.8045 455.693 73.0845 458.333 74.7645C460.973 76.4445 464.133 77.2845 467.813 77.2845C471.253 77.2845 474.093 76.6445 476.333 75.3645C478.573 74.0045 479.693 71.9245 479.693 69.1245C479.693 66.8045 478.533 64.9645 476.213 63.6045C473.893 62.1645 471.093 61.0445 467.813 60.2445C464.533 59.3645 461.253 58.3645 457.973 57.2445C454.693 56.1245 451.893 54.2845 449.573 51.7245C447.253 49.1645 446.093 45.8845 446.093 41.8845C446.093 36.6845 448.093 32.4045 452.093 29.0445C456.173 25.6845 461.253 24.0045 467.333 24.0045C472.213 24.0045 476.533 25.1245 480.293 27.3645C484.133 29.5245 487.013 32.5645 488.933 36.4845L480.173 41.4045C478.013 36.2845 473.733 33.7245 467.333 33.7245C464.373 33.7245 461.853 34.4445 459.773 35.8845C457.693 37.2445 456.653 39.2045 456.653 41.7645Z" fill="black"/>
</svg>
