<svg width="1086" height="112" viewBox="0 0 1086 112" fill="none" xmlns="http://www.w3.org/2000/svg">
<path d="M78.6 3.6V87.6H67.56V21.96L40.08 67.68H38.64L11.16 22.08V87.6H0V3.6H12.6L39.36 48L66 3.6H78.6Z" fill="black"/>
<path d="M145.402 80.04C139.242 86.12 131.763 89.16 122.963 89.16C114.163 89.16 106.682 86.12 100.522 80.04C94.4425 73.96 91.4025 66.48 91.4025 57.6C91.4025 48.72 94.4425 41.24 100.522 35.16C106.682 29.08 114.163 26.04 122.963 26.04C131.763 26.04 139.242 29.08 145.402 35.16C151.562 41.24 154.643 48.72 154.643 57.6C154.643 66.48 151.562 73.96 145.402 80.04ZM122.963 78.96C128.963 78.96 134.003 76.92 138.083 72.84C142.163 68.76 144.202 63.68 144.202 57.6C144.202 51.52 142.163 46.44 138.083 42.36C134.003 38.28 128.963 36.24 122.963 36.24C117.043 36.24 112.043 38.28 107.963 42.36C103.883 46.44 101.842 51.52 101.842 57.6C101.842 63.68 103.883 68.76 107.963 72.84C112.043 76.92 117.043 78.96 122.963 78.96Z" fill="black"/>
<path d="M199.35 26.04C207.75 26.04 214.91 29.12 220.83 35.28C226.75 41.36 229.71 48.8 229.71 57.6C229.71 66.4 226.75 73.88 220.83 80.04C214.91 86.12 207.75 89.16 199.35 89.16C189.43 89.16 181.87 85.2 176.67 77.28V87.6H166.23V3.6H176.67V37.92C181.87 30 189.43 26.04 199.35 26.04ZM198.03 79.08C204.03 79.08 209.07 77.04 213.15 72.96C217.23 68.8 219.27 63.68 219.27 57.6C219.27 51.52 217.23 46.44 213.15 42.36C209.07 38.2 204.03 36.12 198.03 36.12C191.95 36.12 186.87 38.2 182.79 42.36C178.71 46.44 176.67 51.52 176.67 57.6C176.67 63.68 178.71 68.8 182.79 72.96C186.87 77.04 191.95 79.08 198.03 79.08Z" fill="black"/>
<path d="M246.727 16.68C244.727 16.68 243.047 16 241.688 14.64C240.327 13.28 239.647 11.64 239.647 9.72C239.647 7.8 240.327 6.16 241.688 4.8C243.047 3.36 244.727 2.64 246.727 2.64C248.647 2.64 250.287 3.36 251.647 4.8C253.007 6.16 253.688 7.8 253.688 9.72C253.688 11.64 253.007 13.28 251.647 14.64C250.287 16 248.647 16.68 246.727 16.68ZM241.447 87.6V27.6H251.888V87.6H241.447Z" fill="black"/>
<path d="M267.095 87.6V0H277.535V87.6H267.095Z" fill="black"/>
<path d="M300.062 62.4C301.102 67.76 303.542 71.92 307.382 74.88C311.302 77.84 316.102 79.32 321.782 79.32C329.702 79.32 335.462 76.4 339.062 70.56L347.942 75.6C342.102 84.64 333.302 89.16 321.542 89.16C312.022 89.16 304.262 86.2 298.262 80.28C292.342 74.28 289.382 66.72 289.382 57.6C289.382 48.56 292.302 41.04 298.142 35.04C303.982 29.04 311.542 26.04 320.822 26.04C329.622 26.04 336.782 29.16 342.302 35.4C347.902 41.56 350.702 49 350.702 57.72C350.702 59.24 350.582 60.8 350.342 62.4H300.062ZM320.822 35.88C315.222 35.88 310.582 37.48 306.902 40.68C303.222 43.8 300.942 48 300.062 53.28H340.142C339.262 47.6 337.022 43.28 333.422 40.32C329.822 37.36 325.622 35.88 320.822 35.88Z" fill="black"/>
<path d="M447.663 87.6L440.823 68.76H403.023L396.183 87.6H384.303L415.623 3.6H428.223L459.543 87.6H447.663ZM406.863 58.32H436.983L421.863 16.92L406.863 58.32Z" fill="black"/>
<path d="M500.772 26.04C509.172 26.04 516.332 29.12 522.252 35.28C528.172 41.36 531.132 48.8 531.132 57.6C531.132 66.4 528.172 73.88 522.252 80.04C516.332 86.12 509.172 89.16 500.772 89.16C490.852 89.16 483.292 85.2 478.092 77.28V111.6H467.652V27.6H478.092V37.92C483.292 30 490.852 26.04 500.772 26.04ZM499.452 79.08C505.452 79.08 510.492 77.04 514.572 72.96C518.652 68.8 520.692 63.68 520.692 57.6C520.692 51.52 518.652 46.44 514.572 42.36C510.492 38.2 505.452 36.12 499.452 36.12C493.372 36.12 488.292 38.2 484.212 42.36C480.132 46.44 478.092 51.52 478.092 57.6C478.092 63.68 480.132 68.8 484.212 72.96C488.292 77.04 493.372 79.08 499.452 79.08Z" fill="black"/>
<path d="M575.99 26.04C584.39 26.04 591.55 29.12 597.47 35.28C603.39 41.36 606.35 48.8 606.35 57.6C606.35 66.4 603.39 73.88 597.47 80.04C591.55 86.12 584.39 89.16 575.99 89.16C566.07 89.16 558.51 85.2 553.31 77.28V111.6H542.87V27.6H553.31V37.92C558.51 30 566.07 26.04 575.99 26.04ZM574.67 79.08C580.67 79.08 585.71 77.04 589.79 72.96C593.87 68.8 595.91 63.68 595.91 57.6C595.91 51.52 593.87 46.44 589.79 42.36C585.71 38.2 580.67 36.12 574.67 36.12C568.59 36.12 563.51 38.2 559.43 42.36C555.35 46.44 553.31 51.52 553.31 57.6C553.31 63.68 555.35 68.8 559.43 72.96C563.51 77.04 568.59 79.08 574.67 79.08Z" fill="black"/>
<path d="M618.087 87.6V0H628.527V87.6H618.087Z" fill="black"/>
<path d="M643.734 87.6V0H654.174V87.6H643.734Z" fill="black"/>
<path d="M674.662 16.68C672.662 16.68 670.982 16 669.622 14.64C668.262 13.28 667.582 11.64 667.582 9.72C667.582 7.8 668.262 6.16 669.622 4.8C670.982 3.36 672.662 2.64 674.662 2.64C676.582 2.64 678.222 3.36 679.582 4.8C680.942 6.16 681.622 7.8 681.622 9.72C681.622 11.64 680.942 13.28 679.582 14.64C678.222 16 676.582 16.68 674.662 16.68ZM669.382 87.6V27.6H679.822V87.6H669.382Z" fill="black"/>
<path d="M723.229 89.16C714.189 89.16 706.669 86.16 700.669 80.16C694.669 74.08 691.669 66.56 691.669 57.6C691.669 48.64 694.669 41.16 700.669 35.16C706.669 29.08 714.189 26.04 723.229 26.04C729.149 26.04 734.469 27.48 739.189 30.36C743.909 33.16 747.429 36.96 749.749 41.76L740.989 46.8C739.469 43.6 737.109 41.04 733.909 39.12C730.789 37.2 727.229 36.24 723.229 36.24C717.229 36.24 712.189 38.28 708.109 42.36C704.109 46.44 702.109 51.52 702.109 57.6C702.109 63.6 704.109 68.64 708.109 72.72C712.189 76.8 717.229 78.84 723.229 78.84C727.229 78.84 730.829 77.92 734.029 76.08C737.229 74.16 739.669 71.6 741.349 68.4L750.229 73.56C747.669 78.28 743.989 82.08 739.189 84.96C734.389 87.76 729.069 89.16 723.229 89.16Z" fill="black"/>
<path d="M808.676 27.6H819.116V87.6H808.676V77.28C803.476 85.2 795.916 89.16 785.996 89.16C777.596 89.16 770.436 86.12 764.516 80.04C758.596 73.88 755.636 66.4 755.636 57.6C755.636 48.8 758.596 41.36 764.516 35.28C770.436 29.12 777.596 26.04 785.996 26.04C795.916 26.04 803.476 30 808.676 37.92V27.6ZM787.316 79.08C793.396 79.08 798.476 77.04 802.556 72.96C806.636 68.8 808.676 63.68 808.676 57.6C808.676 51.52 806.636 46.44 802.556 42.36C798.476 38.2 793.396 36.12 787.316 36.12C781.316 36.12 776.276 38.2 772.196 42.36C768.116 46.44 766.076 51.52 766.076 57.6C766.076 63.68 768.116 68.8 772.196 72.96C776.276 77.04 781.316 79.08 787.316 79.08Z" fill="black"/>
<path d="M866.854 37.68H850.894V70.2C850.894 73.16 851.454 75.28 852.574 76.56C853.774 77.76 855.574 78.4 857.974 78.48C860.374 78.48 863.334 78.4 866.854 78.24V87.6C857.734 88.8 851.054 88.08 846.814 85.44C842.574 82.72 840.454 77.64 840.454 70.2V37.68H828.574V27.6H840.454V13.92L850.894 10.8V27.6H866.854V37.68Z" fill="black"/>
<path d="M883.774 16.68C881.774 16.68 880.094 16 878.734 14.64C877.374 13.28 876.694 11.64 876.694 9.72C876.694 7.8 877.374 6.16 878.734 4.8C880.094 3.36 881.774 2.64 883.774 2.64C885.694 2.64 887.334 3.36 888.694 4.8C890.054 6.16 890.734 7.8 890.734 9.72C890.734 11.64 890.054 13.28 888.694 14.64C887.334 16 885.694 16.68 883.774 16.68ZM878.494 87.6V27.6H888.934V87.6H878.494Z" fill="black"/>
<path d="M954.781 80.04C948.621 86.12 941.141 89.16 932.341 89.16C923.541 89.16 916.061 86.12 909.901 80.04C903.821 73.96 900.781 66.48 900.781 57.6C900.781 48.72 903.821 41.24 909.901 35.16C916.061 29.08 923.541 26.04 932.341 26.04C941.141 26.04 948.621 29.08 954.781 35.16C960.941 41.24 964.021 48.72 964.021 57.6C964.021 66.48 960.941 73.96 954.781 80.04ZM932.341 78.96C938.341 78.96 943.381 76.92 947.461 72.84C951.541 68.76 953.581 63.68 953.581 57.6C953.581 51.52 951.541 46.44 947.461 42.36C943.381 38.28 938.341 36.24 932.341 36.24C926.421 36.24 921.421 38.28 917.341 42.36C913.261 46.44 911.221 51.52 911.221 57.6C911.221 63.68 913.261 68.76 917.341 72.84C921.421 76.92 926.421 78.96 932.341 78.96Z" fill="black"/>
<path d="M1005.49 26.04C1012.53 26.04 1018.17 28.28 1022.41 32.76C1026.65 37.16 1028.77 43.16 1028.77 50.76V87.6H1018.33V51.36C1018.33 46.48 1017.01 42.72 1014.37 40.08C1011.73 37.36 1008.09 36 1003.45 36C998.248 36 994.048 37.64 990.848 40.92C987.648 44.12 986.048 49.08 986.048 55.8V87.6H975.608V27.6H986.048V36.24C990.288 29.44 996.768 26.04 1005.49 26.04Z" fill="black"/>
<path d="M1051.62 43.8C1051.62 46.12 1052.78 48 1055.1 49.44C1057.42 50.8 1060.22 51.92 1063.5 52.8C1066.78 53.6 1070.06 54.56 1073.34 55.68C1076.62 56.72 1079.42 58.56 1081.74 61.2C1084.06 63.76 1085.22 67.08 1085.22 71.16C1085.22 76.6 1083.1 80.96 1078.86 84.24C1074.7 87.52 1069.34 89.16 1062.78 89.16C1056.94 89.16 1051.94 87.88 1047.78 85.32C1043.62 82.76 1040.66 79.36 1038.9 75.12L1047.9 69.96C1048.86 72.84 1050.66 75.12 1053.3 76.8C1055.94 78.48 1059.1 79.32 1062.78 79.32C1066.22 79.32 1069.06 78.68 1071.3 77.4C1073.54 76.04 1074.66 73.96 1074.66 71.16C1074.66 68.84 1073.5 67 1071.18 65.64C1068.86 64.2 1066.06 63.08 1062.78 62.28C1059.5 61.4 1056.22 60.4 1052.94 59.28C1049.66 58.16 1046.86 56.32 1044.54 53.76C1042.22 51.2 1041.06 47.92 1041.06 43.92C1041.06 38.72 1043.06 34.44 1047.06 31.08C1051.14 27.72 1056.22 26.04 1062.3 26.04C1067.18 26.04 1071.5 27.16 1075.26 29.4C1079.1 31.56 1081.98 34.6 1083.9 38.52L1075.14 43.44C1072.98 38.32 1068.7 35.76 1062.3 35.76C1059.34 35.76 1056.82 36.48 1054.74 37.92C1052.66 39.28 1051.62 41.24 1051.62 43.8Z" fill="black"/>
</svg>
